<?xml version="1.0" encoding="utf-8"?>
<!-- Generator: Adobe Illustrator 22.0.0, SVG Export Plug-In . SVG Version: 6.00 Build 0)  -->
<svg version="1.1" id="Layer_1" xmlns="http://www.w3.org/2000/svg" xmlns:xlink="http://www.w3.org/1999/xlink" x="0px" y="0px"
	 viewBox="0 0 92.6 88.8" style="enable-background:new 0 0 92.6 88.8;" xml:space="preserve">
<style type="text/css">
	.st0{fill:#039AAD;}
	.st1{fill:#231651;}
</style>
<path class="st0" d="M16.2,15.7c-15.9,15.9-15.9,41.8,0,57.7s41.8,15.9,57.7,0s15.9-41.8,0-57.7S32.1-0.3,16.2,15.7z M67.4,66.9
	C55,79.2,35,79.2,22.6,66.9s-12.3-32.4,0-44.7s32.4-12.3,44.7,0S79.8,54.5,67.4,66.9z"/>
<path class="st0" d="M16.2,15.7c-15.9,15.9-15.9,41.8,0,57.7s41.8,15.9,57.7,0s15.9-41.8,0-57.7S32.1-0.3,16.2,15.7z M67.3,66.9
	c-12.3,12.3-32.4,12.3-44.7,0s-12.3-32.4,0-44.7s32.4-12.3,44.7,0S79.8,54.5,67.3,66.9z"/>
<path class="st1" d="M56.1,42.7c-4.5,7.8-9,15.4-13.4,23.2c0,0,0,0.1-0.1,0.1c-0.3,0.6-0.7,1.1-1.4,0.9c-0.8-0.3-0.6-0.9-0.5-1.6
	c0.3-2,0.7-3.9,1.1-5.9c0.6-3.4,1.3-6.8,1.9-10.3c0.1-0.3,0.1-0.6,0.1-1c-0.4,0-0.8-0.1-1.1-0.1c-2.5,0-5.1,0-7.6,0
	c-1.5,0-1.8-0.6-1.1-1.9c4.5-7.8,9-15.4,13.4-23.2c0,0,0-0.1,0.1-0.1c0.3-0.6,0.7-1.1,1.4-0.9c0.8,0.3,0.6,0.9,0.5,1.6
	c-0.3,2-0.7,3.9-1.1,5.9c-0.6,3.4-1.3,6.8-1.9,10.3c-0.1,0.3-0.1,0.6-0.1,1c0.4,0,0.8,0.1,1.1,0.1c2.5,0,5.1,0,7.6,0
	C56.4,40.8,56.7,41.4,56.1,42.7z"/>
</svg>
