<?xml version="1.0" encoding="utf-8"?>
<!-- Generator: Adobe Illustrator 22.0.0, SVG Export Plug-In . SVG Version: 6.00 Build 0)  -->
<svg version="1.1" id="Layer_1" xmlns="http://www.w3.org/2000/svg" xmlns:xlink="http://www.w3.org/1999/xlink" x="0px" y="0px"
	 viewBox="0 0 519.9 622.2" style="enable-background:new 0 0 519.9 622.2;" xml:space="preserve">
<style type="text/css">
	.st0{fill:none;stroke:#039AAD;stroke-width:4;stroke-linecap:round;stroke-miterlimit:10;}
	
		.st1{fill:none;stroke:#039AAD;stroke-width:4;stroke-linecap:round;stroke-linejoin:round;stroke-miterlimit:10;stroke-dasharray:0,14;}
	.st2{fill:#231651;}
	.st3{opacity:0.56;fill:#FF524F;}
	.st4{fill:#FFFFFF;}
	.st5{fill:none;stroke:#6D909D;stroke-width:5;stroke-miterlimit:10;}
	.st6{opacity:0.96;fill:#EAEEF1;}
	.st7{opacity:0.75;}
	.st8{fill:#00ADC2;stroke:#00ADC2;stroke-miterlimit:10;}
	.st9{fill:#00ADC2;}
	.st10{fill:#FFFFFF;stroke:#EAEEF1;stroke-miterlimit:10;}
	.st11{fill:#FFD80A;}
	.st12{fill:#375A64;}
	.st13{fill:#DBDCDD;}
	.st14{fill:#EAEEF1;}
	.st15{fill:#6D909D;}
	.st16{fill:#FF524F;}
	.st17{fill-rule:evenodd;clip-rule:evenodd;fill:#039AAD;}
	
		.st18{fill-rule:evenodd;clip-rule:evenodd;fill:none;stroke:#CCCCCC;stroke-width:4;stroke-linecap:round;stroke-linejoin:round;stroke-miterlimit:10;stroke-dasharray:0,14;}
</style>
<g>
	<g>
		<g>
			<g>
				<g>
					<path class="st0" d="M215.9,507.3c118.1,0,213.9-100.1,213.9-213.9c0-61.1-25.6-116.2-66.7-155.2"/>
					<path class="st1" d="M2,293.4c0,113.9,95.8,213.9,213.9,213.9"/>
					<g>
						<g>
							
								<ellipse transform="matrix(0.7071 -0.7071 0.7071 0.7071 -144.2308 238.6238)" class="st2" cx="215.9" cy="293.4" rx="168" ry="168"/>
							<path class="st3" d="M215.9,125.4c92.8,0,168,75.2,168,168c0,92.8-75.2,168-168,168"/>
							
								<ellipse transform="matrix(0.7071 -0.7071 0.7071 0.7071 -144.2308 238.6238)" class="st4" cx="215.9" cy="293.4" rx="147.5" ry="147.5"/>
							<g>
								<line class="st5" x1="215.9" y1="145.5" x2="215.9" y2="156.6"/>
								<line class="st5" x1="215.9" y1="430.2" x2="215.9" y2="441.4"/>
								<line class="st5" x1="363.9" y1="293.4" x2="352.8" y2="293.4"/>
								<line class="st5" x1="79.1" y1="293.4" x2="68" y2="293.4"/>
							</g>
							<g>
								<line class="st5" x1="111.3" y1="188.8" x2="119.2" y2="196.7"/>
								<line class="st5" x1="312.7" y1="390.2" x2="320.6" y2="398"/>
								<line class="st5" x1="320.6" y1="188.8" x2="312.7" y2="196.7"/>
								<line class="st5" x1="119.2" y1="390.2" x2="111.3" y2="398"/>
							</g>
							<path class="st6" d="M215.9,145.8c81.6,0,147.8,66,147.8,147.5c0,81.5-66.2,147.5-147.8,147.5"/>
						</g>
					</g>
				</g>
			</g>
			<g>
				<g class="st7">
					<path class="st8" d="M396.6,439.7c5.1-4.1,8-10.2,8-16.7v-10.9H366v10.9c0,6.5,3,12.7,8,16.7l5.8,4.7c2.3,1.9,2.3,5.4,0,7.3
						l-5.8,4.7c-5.1,4.1-8,10.2-8,16.7v10.9h38.6V473c0-6.5-3-12.7-8-16.7l-5.8-4.7c-2.3-1.9-2.3-5.4,0-7.3L396.6,439.7z"/>
					<path class="st9" d="M394.9,459.5l-1.5-1.2h-16.1l-1.5,1.2c-4.3,3.5-6.8,8.7-6.8,14.2v9.2h32.8v-9.2
						C401.7,468.2,399.2,462.9,394.9,459.5z"/>
					<rect x="363.6" y="408.8" class="st9" width="43.5" height="6"/>
					<rect x="363.6" y="481.2" class="st9" width="43.5" height="6"/>
				</g>
				<g>
					<g>
						<path class="st10" d="M394.2,437.2c5.1-4.1,8-10.2,8-16.7v-10.9h-38.6v10.9c0,6.5,3,12.7,8,16.7l5.8,4.7
							c2.3,1.9,2.3,5.4,0,7.3l-5.8,4.7c-5.1,4.1-8,10.2-8,16.7v10.9h38.6v-10.9c0-6.5-3-12.7-8-16.7l-5.8-4.7
							c-2.3-1.9-2.3-5.4,0-7.3L394.2,437.2z"/>
						<path class="st11" d="M392.5,457l-1.5-1.2h-16.1l-1.5,1.2c-4.3,3.5-6.8,8.7-6.8,14.2v9.2h32.8v-9.2
							C399.3,465.7,396.8,460.5,392.5,457z"/>
						<g>
							<g>
								<rect x="361.1" y="406.4" class="st12" width="43.5" height="6"/>
							</g>
							<g>
								<rect x="361.1" y="478.7" class="st12" width="43.5" height="6"/>
							</g>
						</g>
					</g>
				</g>
			</g>
			<g>
				<g class="st7">
					<polygon class="st9" points="439.6,293.1 405.8,303 439.6,313 473.4,303 					"/>
					<polygon class="st9" points="427.7,296.6 420.4,298.7 454.2,308.7 461.5,306.5 					"/>
					<polygon class="st9" points="405.8,303 405.8,324.6 405.8,346.2 439.6,356.2 439.6,313 					"/>
					<polygon class="st9" points="439.6,313 439.6,356.2 473.4,346.2 473.4,324.6 473.4,303 					"/>
					<polygon class="st9" points="461.5,322.5 461.5,306.5 454.2,308.7 454.2,324.6 					"/>
					<polygon class="st9" points="418.3,315.6 435,320.6 435,318.3 418.3,313.4 					"/>
					<polygon class="st9" points="418.3,319.3 435,324.3 435,322 418.3,317.1 					"/>
				</g>
				<g>
					<g>
						<g>
							<polygon class="st13" points="437.1,290.6 403.3,300.5 437.1,310.5 470.9,300.5 							"/>
							<polygon class="st11" points="425.2,294.1 417.9,296.2 451.7,306.2 459,304.1 							"/>
							<g>
								<polygon class="st4" points="403.3,300.5 403.3,322.1 403.3,343.7 437.1,353.7 437.1,310.5 								"/>
								<polygon class="st14" points="437.1,310.5 437.1,353.7 470.9,343.7 470.9,322.1 470.9,300.5 								"/>
							</g>
							<polygon class="st11" points="459,320 459,304.1 451.7,306.2 451.7,322.1 							"/>
						</g>
						<polygon class="st15" points="415.8,313.2 432.5,318.1 432.5,315.8 415.8,310.9 						"/>
						<polygon class="st15" points="415.8,316.8 432.5,321.8 432.5,319.5 415.8,314.6 						"/>
					</g>
				</g>
			</g>
			<g>
				<g class="st7">
					<rect x="385.5" y="177.5" class="st9" width="69.2" height="44.7"/>
					<polygon class="st9" points="385.5,222.2 420.1,188.8 454.7,222.2 					"/>
					<polygon class="st9" points="385.5,177.5 420.1,205.2 454.7,177.5 					"/>
				</g>
				<g>
					<g>
						<rect x="382.9" y="174.9" class="st13" width="69.2" height="44.7"/>
						<polygon class="st14" points="382.9,219.6 417.5,186.1 452.1,219.6 						"/>
						<polygon class="st4" points="382.9,174.9 417.5,202.5 452.1,174.9 						"/>
					</g>
				</g>
			</g>
			<g>
				<g class="st7">
					<path class="st8" d="M315.6,497.8c0,12.9-23.3,41.9-23.3,41.9s-23.3-29-23.3-41.9c0-12.9,10.5-23.3,23.3-23.3
						C305.1,474.5,315.6,485,315.6,497.8z"/>
					<circle class="st9" cx="292.2" cy="497.8" r="13.9"/>
				</g>
				<g>
					<g>
						<path class="st10" d="M313,495.2c0,12.9-23.3,41.9-23.3,41.9s-23.3-29-23.3-41.9c0-12.9,10.5-23.3,23.3-23.3
							C302.5,471.9,313,482.4,313,495.2z"/>
						<circle class="st16" cx="289.6" cy="495.2" r="13.9"/>
					</g>
				</g>
			</g>
		</g>
	</g>
	<path class="st17" d="M193.2,332.3c-4.1,4.1-9.9,3.9-13.8-0.1c-3.9-3.9-4.1-9.7-0.1-13.8l92.2-92.2c-7.4-5.9-15.6-10.5-24.2-13.6
		c-9.7-3.6-19.9-5.3-30.1-5.3v0c-11.4,0-22.7,2.2-33.4,6.6c-10.2,4.2-19.9,10.5-28.2,18.9c-8.4,8.3-14.6,18-18.9,28.2
		c-4.4,10.6-6.6,22-6.6,33.4c0,22.3,8.5,44.6,25.5,61.6c8.3,8.4,18,14.6,28.2,18.9c10.7,4.4,22,6.6,33.4,6.6
		c11.3,0,22.7-2.2,33.4-6.6c10.2-4.2,19.9-10.5,28.2-18.9c4.2-3.9,9.7-4.1,13.8,0.1c3.9,3.9,4.1,9.7,0.1,13.8
		c-10.2,10.2-22,17.9-34.6,23.1c-13,5.4-27,8.1-40.9,8.1c-13.9,0-27.8-2.7-40.9-8.1c-12.6-5.2-24.4-12.9-34.6-23.1
		c-10.2-10.2-17.9-22-23.1-34.6c-5.4-13.1-8.1-27-8.1-40.9c0-13.9,2.7-27.8,8.1-40.9c5.2-12.6,12.9-24.4,23.1-34.6
		c10.2-10.2,22-17.9,34.6-23.1c13.1-5.4,27-8.1,40.9-8.1c13.9,0,27.8,2.7,40.9,8.1c12.6,5.2,24.4,12.9,34.6,23.1
		c1.9,1.9,2.9,4.4,2.9,6.9c0,2.5-1,5-2.9,6.9L193.2,332.3z"/>
	<path class="st18" d="M209,2c170.7,0.1,309,138.5,308.9,309.2s-138.5,309-309.2,308.9"/>
</g>
</svg>
